<?xml version="1.0" encoding="UTF-8"?>
<svg height="427pt" viewBox="-40 0 427 427.00131" width="427pt" fill="Red"
    xmlns="http://www.w3.org/2000/svg" enable-background="new 0 0 511.004 511.004">
    <g>
        <path d="m476 490-6.9-12v-0.5c0.6-16.6-12.4-30.5-29-31.1s-30.5 12.3-31.1 28.9v2.2c0 9.5 4.3 18.4 11.8 24.2v25.3h31.6v-12h4.9c6.5 0 11.8-5.3 11.8-11.8v-0.2-6h4.4c2.6-0.3 4.9-3.3 2.5-7zm-62.5-22.5h5.5v-4c-1.1-0.8-1.3-2.4-0.5-3.5s2.4-1.3 3.5-0.5 1.3 2.4 0.5 3.5c-0.1 0.2-0.3 0.4-0.5 0.5v4h4v7c1.1 0.8 1.3 2.4 0.5 3.5s-2.4 1.3-3.5 0.5-1.3-2.4-0.5-3.5c0.1-0.2 0.3-0.4 0.5-0.5v-4h-10.4c0.3-1 0.5-2 0.9-3zm27.8 16.9c-1.4 0-2.5-1.1-2.5-2.5v-0.4l-2.6-2.6-4.2 4.2v7.4c1.1 0.8 1.3 2.4 0.5 3.5s-2.4 1.3-3.5 0.5-1.3-2.4-0.5-3.5c0.1-0.2 0.3-0.4 0.5-0.5v-1h-6.7l-4.7-5.5c-1.4 0.1-2.6-0.9-2.7-2.3s0.9-2.6 2.3-2.7 2.6 0.9 2.7 2.3v0.7l3.8 4.5h5.3v-4.6l5.1-5.1-3.1-3.2v-18.1c-1.1-0.8-1.3-2.4-0.5-3.5s2.4-1.3 3.5-0.5 1.3 2.4 0.5 3.5c-0.1 0.2-0.3 0.4-0.5 0.5v3h8v7c1.1 0.8 1.3 2.4 0.5 3.5s-2.4 1.3-3.5 0.5-1.3-2.4-0.5-3.5c0.1-0.2 0.3-0.4 0.5-0.5v-4h-5v10.9l7 7h0.3c1.4 0 2.5 1.1 2.5 2.5s-1.1 2.5-2.5 2.5zm12.2-20.2c-1.4 0-2.5-1.1-2.5-2.5v-0.2l-4-3.6v-7.3c1 0.3 2 0.7 3 1.1v4.9l3 2.7h0.5c1.4 0 2.5 1.1 2.5 2.5s-1.1 2.4-2.5 2.4z"/>

        <path d="m343.42 511h-33c-4.142 0-7.5 3.358-7.5 7.5s3.358 7.5 7.5 7.5h33c4.142 0 7.5-3.358 7.5-7.5s-3.358-7.5-7.5-7.5zm-31 10.5c-1.657 0-3-1.343-3-3s1.343-3 3-3 3 1.343 3 3-1.343 3-3 3zm14.5 0c-1.657 0-3-1.343-3-3s1.343-3 3-3 3 1.343 3 3-1.343 3-3 3zm14.5 0c-1.657 0-3-1.343-3-3s1.343-3 3-3 3 1.343 3 3-1.343 3-3 3z"/>
        <path d="m333.83 467c0 0.828-0.672 1.5-1.5 1.5s-1.5-0.672-1.5-1.5 0.672-1.5 1.5-1.5 1.5 0.672 1.5 1.5z"/>
        <path d="m335.61 457h-6.61v-4.55c1.913-1.105 2.569-3.551 1.464-5.464s-3.551-2.569-5.464-1.464c-1.913 1.104-2.569 3.551-1.464 5.464 0.351 0.608 0.856 1.113 1.464 1.464v4.55h-6.61c-2.422 5e-3 -4.385 1.968-4.39 4.39v11.22c5e-3 2.422 1.968 4.385 4.39 4.39h17.22c2.422-5e-3 4.385-1.968 4.39-4.39v-11.22c-5e-3 -2.422-1.968-4.385-4.39-4.39zm-13.61 13c-1.657 0-3-1.343-3-3s1.343-3 3-3 3 1.343 3 3-1.343 3-3 3zm10 0c-1.657 0-3-1.343-3-3s1.343-3 3-3 3 1.343 3 3-1.343 3-3 3z"/>
        <path d="m323.83 467c0 0.828-0.672 1.5-1.5 1.5s-1.5-0.672-1.5-1.5 0.672-1.5 1.5-1.5 1.5 0.672 1.5 1.5z"/>
        <path d="m353 497.82v-8.33c0-2.48-2.01-4.49-4.49-4.49h-5.51v-5h-32v6h-7.51c-0.271 0-0.49-0.219-0.49-0.49v-8.29c3.438-1.015 5.401-4.625 4.386-8.062-0.272-0.922-0.745-1.772-1.386-2.488l-3 2.66c0.42 0.456 0.658 1.05 0.67 1.67-7e-3 1.381-1.133 2.494-2.514 2.486-1.38-7e-3 -2.493-1.132-2.486-2.513 3e-3 -0.597 0.22-1.172 0.61-1.623l-3-2.63c-2.357 2.708-2.072 6.814 0.635 9.17 0.613 0.534 1.32 0.947 2.085 1.22v8.4c0 2.48 2.01 4.49 4.49 4.49h7.51v18h32v-19h5.51c0.271 0 0.49 0.219 0.49 0.49v8.33c-3.416 1.105-5.289 4.77-4.184 8.185 0.277 0.855 0.728 1.643 1.324 2.315l3-2.66c-0.414-0.454-0.642-1.046-0.64-1.66 1e-3 -1.381 1.121-2.499 2.502-2.498s2.499 1.122 2.498 2.502c0 0.606-0.221 1.191-0.62 1.646l3 2.63c2.366-2.692 2.102-6.793-0.591-9.159-0.666-0.586-1.445-1.028-2.289-1.301zm-14-3.82h-2.78c-0.097 0.017-0.189 0.055-0.27 0.11l-3.06 3.13-2.33-5.52-4.35 9-3.05-11.72-2.35 5h-4.81v-2h3.54l4.16-8.85 3.08 11.78 3.91-8 2.88 6.82 1-1c0.439-0.444 1.026-0.711 1.65-0.75h2.78z"/>

    </g>
</svg>
